<svg xmlns="http://www.w3.org/2000/svg" width="41.115" height="27.409" viewBox="0 0 41.115 27.409"><g transform="translate(58 -54.367)"><g transform="translate(-58 54.367)"><path d="M76.518,113.295h23.3a3.437,3.437,0,0,0,3.426-3.426V94.793a3.437,3.437,0,0,0-3.426-3.426h-23.3a3.436,3.436,0,0,0-3.426,3.426v15.075a3.436,3.436,0,0,0,3.426,3.426Zm-.686-18.5a.695.695,0,0,1,.686-.685h23.3a.694.694,0,0,1,.685.685v15.075a.694.694,0,0,1-.685.685h-23.3a.695.695,0,0,1-.685-.685Z" transform="translate(-67.61 -91.367)"/><path d="M37.689,402H0v2.055a1.715,1.715,0,0,0,1.006,1.456,4.647,4.647,0,0,0,2.42.6H37.689a4.645,4.645,0,0,0,2.419-.6,1.716,1.716,0,0,0,1.007-1.456V402Zm-15.418,2.055H18.844a.343.343,0,0,1,0-.686h3.426a.343.343,0,0,1,0,.686Z" transform="translate(0 -378.699)"/></g></g></svg>