<svg xmlns="http://www.w3.org/2000/svg" width="46.459" height="65.974" viewBox="0 0 46.459 65.974"><defs><style>.a{fill:#d9d9d9;}</style></defs><g transform="translate(-75.726)"><g transform="translate(75.726)"><path class="a" d="M98.955,0A23.44,23.44,0,0,0,75.726,23.593V42.382a23.232,23.232,0,1,0,46.459.072V23.593A23.441,23.441,0,0,0,98.955,0Zm18.86,42.454a18.863,18.863,0,1,1-37.72-.073V23.593a18.864,18.864,0,1,1,37.72,0Z" transform="translate(-75.726)"/></g><g transform="translate(96.771 18.059)"><path class="a" d="M241.231,140.15a2.185,2.185,0,0,0-2.185,2.185v7.646a2.185,2.185,0,0,0,4.369,0v-7.646A2.185,2.185,0,0,0,241.231,140.15Z" transform="translate(-239.046 -140.15)"/></g></g></svg>