<svg xmlns="http://www.w3.org/2000/svg" width="40.31" height="32.608" viewBox="0 0 40.31 32.608"><g transform="translate(0 -74.435)"><g transform="translate(0 74.435)"><path d="M255.876,632.351H234.744a1.076,1.076,0,0,0-1.076,1.076v.662a1.077,1.077,0,0,0,1.076,1.077h24.693v-2.815Z" transform="translate(-221.578 -603.485)"/><circle cx="5.96" cy="5.96" r="5.96" transform="translate(4.967)"/><path d="M25.467,313.469l-13.657-.008h-.323v-1.585l-.011-1.327a5.738,5.738,0,0,0-5.738-5.738c-.107,0-.214,0-.32.009l-.008-.009A5.41,5.41,0,0,0,0,310.221V325.5H11.487v-6.509l-.152-.012a.13.13,0,0,0-.02,0,2.78,2.78,0,0,1-2.047-.9L4.605,312.99a.4.4,0,0,1,.587-.538l4.662,5.089a2.055,2.055,0,0,0,1.476.675l.548.008H25.467a2.377,2.377,0,1,0,0-4.754Z" transform="translate(0 -292.892)"/><path d="M342.309,308.053a1.064,1.064,0,0,0-1.352.662l-4.512,13.172H320.3a1.064,1.064,0,1,0,0,2.128h16.893a1.135,1.135,0,0,0,1.032-.754l4.747-13.857A1.064,1.064,0,0,0,342.309,308.053Z" transform="translate(-302.719 -295.912)"/></g></g></svg>